HIERARCHY
ROOT Hips
{
	OFFSET 0.000000 0.000000 0.000000
	CHANNELS 6 Xposition Yposition Zposition Xrotation Yrotation Zrotation
	JOINT LeftUpLeg_virtual
	{
		OFFSET 0.000000 0.000000 0.000000
		CHANNELS 3 Xrotation Yrotation Zrotation
		JOINT LeftUpLeg
		{
			OFFSET 11.394100 -6.187798 -0.413800
			CHANNELS 3 Xrotation Yrotation Zrotation
			JOINT LeftLeg
			{
				OFFSET 0.430247 -32.302673 3.732800
				CHANNELS 3 Xrotation Yrotation Zrotation
				JOINT LeftFoot
				{
					OFFSET -0.430247 -48.264931 -6.423300
					CHANNELS 3 Xrotation Yrotation Zrotation
					JOINT LeftToeBase
					{
						OFFSET 4.230900 -16.068199 23.438400
						CHANNELS 3 Xrotation Yrotation Zrotation
						JOINT LeftToe_End
						{
							OFFSET 4.510700 0.695400 19.974600
							CHANNELS 3 Xrotation Yrotation Zrotation
							End Site
							{
								OFFSET 0 0 0
							}
						}
					}
				}
			}
		}
	}
	JOINT RightUpLeg_virtual
	{
		OFFSET 0.000000 0.000000 0.000000
		CHANNELS 3 Xrotation Yrotation Zrotation
		JOINT RightUpLeg
		{
			OFFSET -11.333700 -6.187798 -0.413800
			CHANNELS 3 Xrotation Yrotation Zrotation
			JOINT RightLeg
			{
				OFFSET -0.430392 -32.302628 3.733000
				CHANNELS 3 Xrotation Yrotation Zrotation
				JOINT RightFoot
				{
					OFFSET 0.430392 -48.264973 -6.423500
					CHANNELS 3 Xrotation Yrotation Zrotation
					JOINT RightToeBase
					{
						OFFSET -4.230900 -16.068199 23.438400
						CHANNELS 3 Xrotation Yrotation Zrotation
						JOINT RightToe_End
						{
							OFFSET -4.510700 0.695400 19.974600
							CHANNELS 3 Xrotation Yrotation Zrotation
							End Site
							{
								OFFSET 0 0 0
							}
						}
					}
				}
			}
		}
	}
	JOINT Spine_virtual
	{
		OFFSET 0.000000 0.000000 0.000000
		CHANNELS 3 Xrotation Yrotation Zrotation
		JOINT Spine
		{
			OFFSET -0.002400 12.777504 0.315300
			CHANNELS 3 Xrotation Yrotation Zrotation
			JOINT Spine1
			{
				OFFSET -0.002067 5.816869 0.032633
				CHANNELS 3 Xrotation Yrotation Zrotation
				JOINT Spine1_split
				{
					OFFSET -0.002067 5.816869 0.032633
					CHANNELS 3 Xrotation Yrotation Zrotation
					JOINT Spine2
					{
						OFFSET -0.002067 5.816869 0.032633
						CHANNELS 3 Xrotation Yrotation Zrotation
						JOINT Neck_virtual
						{
							OFFSET 0.000000 0.000000 0.000000
							CHANNELS 3 Xrotation Yrotation Zrotation
							JOINT Neck
							{
								OFFSET -0.003700 21.199493 -0.826900
								CHANNELS 3 Xrotation Yrotation Zrotation
								JOINT Head
								{
									OFFSET 0.000000 20.442200 4.834800
									CHANNELS 3 Xrotation Yrotation Zrotation
									JOINT HeadTop_End
									{
										OFFSET 0.000000 34.668396 4.968400
										CHANNELS 3 Xrotation Yrotation Zrotation
										End Site
										{
											OFFSET 0 0 0
										}
									}
								}
							}
						}
						JOINT LeftShoulder_virtual
						{
							OFFSET 0.000000 0.000000 0.000000
							CHANNELS 3 Xrotation Yrotation Zrotation
							JOINT LeftShoulder
							{
								OFFSET 3.288150 8.794197 -1.372250
								CHANNELS 3 Xrotation Yrotation Zrotation
								JOINT LeftShoulder_split
								{
									OFFSET 3.288150 8.794197 -1.372250
									CHANNELS 3 Xrotation Yrotation Zrotation
									JOINT LeftArm
									{
										OFFSET 11.953299 -2.279007 -0.146200
										CHANNELS 3 Xrotation Yrotation Zrotation
										JOINT LeftForeArm
										{
											OFFSET 18.448900 0.000000 0.000000
											CHANNELS 3 Xrotation Yrotation Zrotation
											JOINT LeftHand
											{
												OFFSET 29.527798 0.000000 0.000000
												CHANNELS 3 Xrotation Yrotation Zrotation
												End Site
												{
													OFFSET 0 0 0
												}
											}
										}
									}
								}
							}
						}
						JOINT RightShoulder_virtual
						{
							OFFSET 0.000000 0.000000 0.000000
							CHANNELS 3 Xrotation Yrotation Zrotation
							JOINT RightShoulder
							{
								OFFSET -3.249400 8.794197 -1.372250
								CHANNELS 3 Xrotation Yrotation Zrotation
								JOINT RightShoulder_split
								{
									OFFSET -3.249400 8.794197 -1.372250
									CHANNELS 3 Xrotation Yrotation Zrotation
									JOINT RightArm
									{
										OFFSET -11.953299 -2.279007 -0.146200
										CHANNELS 3 Xrotation Yrotation Zrotation
										JOINT RightForeArm
										{
											OFFSET -18.448900 0.000000 0.000000
											CHANNELS 3 Xrotation Yrotation Zrotation
											JOINT RightHand
											{
												OFFSET -29.527802 0.000000 0.000000
												CHANNELS 3 Xrotation Yrotation Zrotation
												End Site
												{
													OFFSET 0 0 0
												}
											}
										}
									}
								}
							}
						}
					}
				}
			}
		}
	}
}
MOTION
Frames: 5
Frame Time: 0.03333333
5.682997 83.714867 -9.348959 0.000000 0.000000 0.000000 0.442663 41.573162 -4.170887 -17.156030 2.301503 13.457098 44.850181 -2.133116 6.224622 -16.587639 18.937823 -21.124211 -5.992096 -10.473648 12.284689 0.000000 0.000000 0.000000 2.428199 41.734519 -5.286360 -46.403892 5.624513 -7.993114 43.092527 14.202755 -11.624056 11.285153 -14.954254 30.590641 -3.230968 9.922424 -21.593766 0.000000 0.000000 0.000000 -1.300627 49.866463 -2.423922 5.047782 -4.371989 -0.483897 3.595780 -1.326707 0.462822 0.157395 -0.304605 -0.102038 0.000000 0.000000 0.000000 2.866513 0.260597 0.176754 -3.454392 4.417237 3.317463 -21.888991 -8.674931 -20.654757 0.000000 0.000000 0.000000 1.695257 -1.214663 -0.416482 4.527744 -12.339321 -3.882432 -0.761959 -0.824257 -0.855817 12.304763 -44.611131 -39.130994 172.399821 -64.942087 175.455703 0.000000 0.000000 0.000000 3.117243 -0.435607 0.418499 1.345466 -4.817019 9.768892 -7.704614 8.704889 7.177816 -25.306440 -10.758308 43.358905 -160.839617 59.150353 165.020335 0.000000 0.000000 0.000000 
5.329625 86.078072 -9.482782 0.000000 0.000000 0.000000 0.482257 40.878873 -4.137261 -17.730934 1.105463 13.939226 44.570553 -2.560040 5.644645 -9.359366 17.363891 -22.007636 -4.595538 -10.206510 11.767446 0.000000 0.000000 0.000000 2.559871 41.347500 -4.915473 -44.970317 4.479057 -8.818239 38.955871 15.099974 -10.816969 13.020481 -11.654752 33.416325 -9.118663 11.502243 -22.291956 0.000000 0.000000 0.000000 -0.833652 47.499171 -2.897575 4.099850 -4.571938 -0.079148 3.081297 -1.391236 0.585857 -0.046535 -0.074501 -0.119121 0.000000 0.000000 0.000000 2.762705 0.183568 0.234870 -3.276957 4.448627 3.311464 -21.783591 -8.741123 -20.969996 0.000000 0.000000 0.000000 1.668124 -1.329362 -0.194928 4.551948 -12.605842 -2.916377 -1.591800 -1.166899 -0.453813 8.591105 -44.783279 -39.324818 172.876049 -64.298137 176.242049 0.000000 0.000000 0.000000 3.027596 -0.530467 0.497763 1.101259 -4.703628 8.540153 -6.747126 8.042664 5.588473 -27.824350 -9.902084 42.946860 -163.088566 56.463767 166.581757 0.000000 0.000000 0.000000 
5.356843 90.788116 -10.008890 0.000000 0.000000 0.000000 0.715004 39.941850 -4.028315 -18.455859 -0.867401 13.449973 43.171191 -2.783568 5.292544 0.420180 12.915054 -21.756731 -5.146618 -9.987815 7.750074 0.000000 0.000000 0.000000 3.016990 40.090366 -4.546553 -41.663853 3.251730 -8.876830 32.040042 15.203646 -9.113596 13.229718 -9.018412 32.310343 -8.745255 11.531223 -21.277981 0.000000 0.000000 0.000000 0.657772 44.215585 -4.004355 2.737289 -4.731111 0.328663 2.763634 -1.589351 0.785592 -0.117640 0.225928 -0.053154 0.000000 0.000000 0.000000 2.606448 0.027247 0.368749 -2.329886 4.651181 3.296584 -21.898705 -7.690463 -20.454921 0.000000 0.000000 0.000000 1.829926 -1.499175 0.122087 4.576825 -12.464607 -1.865081 -1.331689 -1.375192 -1.390047 3.127146 -44.147334 -40.085356 173.446999 -63.184058 176.963808 0.000000 0.000000 0.000000 3.157536 -0.698301 0.626948 0.849626 -4.232293 6.716828 -5.331463 5.759174 5.322805 -30.250133 -6.649930 41.435886 -165.050073 54.529655 167.481771 0.000000 0.000000 0.000000 
5.787107 96.318428 -10.709822 0.000000 0.000000 0.000000 0.835990 38.202686 -3.603580 -19.341535 -2.658662 12.497319 42.029129 -2.886028 5.354464 10.200905 6.955397 -19.908116 -11.499873 -9.887103 2.360981 0.000000 0.000000 0.000000 2.943918 37.392478 -3.842176 -37.928092 1.864214 -8.438800 25.532038 14.199762 -7.188878 12.508490 -7.864471 27.919346 -3.563841 10.407507 -19.204535 0.000000 0.000000 0.000000 2.149675 40.550085 -4.594895 1.362330 -4.799769 0.560026 2.693806 -1.894092 1.015488 -0.000602 0.457480 0.019010 0.000000 0.000000 0.000000 2.459523 -0.176933 0.541367 -0.872400 4.975922 3.292127 -22.076590 -5.593660 -19.196885 0.000000 0.000000 0.000000 2.107292 -1.698996 0.472923 4.543679 -11.991884 -0.897325 -0.370763 -1.216965 -2.706705 -3.216548 -42.510298 -41.797080 173.956421 -62.046682 177.403700 0.000000 0.000000 0.000000 3.432356 -0.888579 0.808675 0.690569 -3.264168 4.788577 -3.862230 3.617660 6.158113 -31.649690 -1.978384 39.886290 -166.668746 53.813858 167.908234 0.000000 0.000000 0.000000 
6.429719 101.492508 -11.205225 0.000000 0.000000 0.000000 0.681049 35.639944 -2.633021 -19.627658 -3.408497 10.987187 41.256583 -3.408992 6.014138 17.613468 1.289264 -17.583912 -22.663847 -8.972324 -2.478921 0.000000 0.000000 0.000000 2.084571 33.127258 -2.645159 -35.263812 0.482004 -8.174280 22.565545 12.838654 -5.620282 12.157876 -7.404800 23.015475 -0.371580 9.569309 -16.745527 0.000000 0.000000 0.000000 2.822800 37.191357 -4.007479 0.406489 -4.666136 0.488152 2.844868 -2.218426 1.222369 0.102217 0.546909 0.003937 0.000000 0.000000 0.000000 2.352279 -0.396428 0.764622 0.648701 5.349641 3.273182 -22.123285 -2.612121 -17.338707 0.000000 0.000000 0.000000 2.375895 -1.905399 0.789563 4.465219 -11.211951 -0.004745 0.762062 -0.621501 -3.385867 -9.242259 -40.054333 -44.079381 174.317274 -61.481422 177.504855 0.000000 0.000000 0.000000 3.686798 -1.060178 1.019377 0.695099 -1.671390 3.216674 -2.786591 2.577171 6.912399 -31.915401 2.759800 38.970532 -167.885094 54.431902 168.018378 0.000000 0.000000 0.000000 
